<?xml version="1.0" encoding="UTF-8" standalone="no"?>
<!-- Generator: Adobe Illustrator 19.0.0, SVG Export Plug-In . SVG Version: 6.00 Build 0)  -->

<svg
   xmlns:dc="http://purl.org/dc/elements/1.1/"
   xmlns:cc="http://creativecommons.org/ns#"
   xmlns:rdf="http://www.w3.org/1999/02/22-rdf-syntax-ns#"
   xmlns:svg="http://www.w3.org/2000/svg"
   xmlns="http://www.w3.org/2000/svg"
   xmlns:sodipodi="http://sodipodi.sourceforge.net/DTD/sodipodi-0.dtd"
   xmlns:inkscape="http://www.inkscape.org/namespaces/inkscape"
   version="1.1"
   id="Layer_1"
   x="0px"
   y="0px"
   viewBox="0 0 511.999 511.999"
   style="enable-background:new 0 0 511.999 511.999;"
   xml:space="preserve"
   inkscape:version="0.91 r13725"
   sodipodi:docname="guitar.svg"><metadata
     id="metadata49"><rdf:RDF><cc:Work
         rdf:about=""><dc:format>image/svg+xml</dc:format><dc:type
           rdf:resource="http://purl.org/dc/dcmitype/StillImage" /><dc:title></dc:title></cc:Work></rdf:RDF></metadata><defs
     id="defs47" /><sodipodi:namedview
     pagecolor="#ffffff"
     bordercolor="#666666"
     borderopacity="1"
     objecttolerance="10"
     gridtolerance="10"
     guidetolerance="10"
     inkscape:pageopacity="0"
     inkscape:pageshadow="2"
     inkscape:window-width="1440"
     inkscape:window-height="845"
     id="namedview45"
     showgrid="false"
     inkscape:zoom="0.65186535"
     inkscape:cx="503.65047"
     inkscape:cy="262.41522"
     inkscape:window-x="0"
     inkscape:window-y="27"
     inkscape:window-maximized="1"
     inkscape:current-layer="Layer_1"
     showborder="false" /><path
     style="color:#000000;font-style:normal;font-variant:normal;font-weight:normal;font-stretch:normal;font-size:medium;line-height:normal;font-family:sans-serif;text-indent:0;text-align:start;text-decoration:none;text-decoration-line:none;text-decoration-style:solid;text-decoration-color:#000000;letter-spacing:normal;word-spacing:normal;text-transform:none;direction:ltr;block-progression:tb;writing-mode:lr-tb;baseline-shift:baseline;text-anchor:start;white-space:normal;clip-rule:nonzero;display:inline;overflow:visible;visibility:visible;opacity:1;isolation:auto;mix-blend-mode:normal;color-interpolation:sRGB;color-interpolation-filters:linearRGB;solid-color:#000000;solid-opacity:1;fill:#000000;fill-opacity:1;fill-rule:nonzero;stroke:none;stroke-width:1;stroke-linecap:butt;stroke-linejoin:miter;stroke-miterlimit:4;stroke-dasharray:none;stroke-dashoffset:0;stroke-opacity:1;color-rendering:auto;image-rendering:auto;shape-rendering:auto;text-rendering:auto;enable-background:accumulate"
     d="m 536.46136,-89.008845 c -2.90991,9e-6 -5.81735,1.108978 -8.04464,3.334125 l -70.88979,70.889789 c -2.13323,2.135354 -3.33183,5.0270741 -3.33183,8.0423407 0,3.012429 1.19337,5.89517926 3.32035,8.0285544 l 0.8318,0.8318076 -123.82907,123.8290683 -0.79044,-0.48713 c -17.65805,-10.877 -36.02796,-16.9222 -53.63553,-17.59664 -22.72275,-0.8707 -43.19369,7.15824 -59.31801,23.28372 -11.9361,11.93963 -21.08693,22.12746 -27.97586,31.13075 -6.70709,8.76754 -10.81764,13.39497 -14.9059,15.88937 -4.0916,2.49643 -8.01412,2.66087 -13.77309,2.66087 -42.84264,0 -83.588021,17.15358 -114.764201,48.33677 C 18.167234,260.35714 1,301.79922 1,345.90717 c 0,44.10667 17.167368,85.54921 48.355149,116.73572 31.187848,31.18785 72.630221,48.35516 116.735731,48.35516 2.47671,0 4.94841,-0.0625 7.41044,-0.17004 l 0.11948,-0.005 0.1149,0.0184 c 0.59818,0.0934 1.18584,0.15166 1.7762,0.15166 l 250.98079,0.005 c 6.29572,0 11.37187,-5.075 11.37187,-11.37188 0,-6.29328 -5.07412,-11.37416 -11.37187,-11.37416 l -176.55696,-0.002 3.4743,-2.17373 c 10.53905,-6.59305 20.40985,-14.42403 29.41887,-23.43538 31.18679,-31.18328 48.338,-71.92878 48.33447,-114.7619 0,-5.76012 0.16366,-9.68302 2.66087,-13.77539 2.49517,-4.08902 7.12466,-8.20052 15.89396,-14.9082 9.02444,-6.90304 19.21236,-16.05518 31.13076,-27.97357 16.12226,-16.12459 24.14867,-36.57741 23.27913,-59.3134 -0.67446,-17.6065 -6.71623,-35.97867 -17.59206,-53.63783 l -0.48713,-0.79044 123.82678,-123.824474 0.83181,0.8295 c 2.1333,2.123699 5.01754,3.318049 8.02856,3.318049 3.01694,0 5.90988,-1.19708 8.04233,-3.329531 l 70.89209,-70.894388 c 2.13302,-2.135143 3.32952,-5.027795 3.32952,-8.044638 0.003,-3.017303 -1.19339,-5.907284 -3.32722,-8.040043 L 544.50141,-85.67472 c -2.2249,-2.224892 -5.13016,-3.334134 -8.04005,-3.334125 z m -0.002,27.45885 37.08898,37.086681 -53.97789,53.97789 -0.83181,0.831818 -37.08668,-37.0866866 54.3915,-54.3937984 0.4159,-0.415904 z m -79.76623,45.933256 c -0.88234,0.883213 -1.6178,1.882907 -2.19442,2.964178 0.57734,-1.08126 1.31439,-2.08097 2.19671,-2.964178 l -0.002,0 z m -3.6742,8.8741487 c 0,1.5653849 0.3167,3.0868978 0.89614,4.5083063 -0.55288,-1.429151 -0.89614,-2.9454096 -0.89614,-4.5083063 z M 474.42734,18.207049 493.791,37.570708 215.87296,315.48644 l -1.07077,1.07078 -0.77206,-1.30516 c -1.00835,-1.70307 -2.13869,-3.3478 -3.36401,-4.9357 -0.0731,-0.0933 -0.1493,-0.19024 -0.22978,-0.29412 -0.51834,-0.6617 -1.05552,-1.31152 -1.61305,-1.95313 -0.13326,-0.15305 -0.24997,-0.29283 -0.34468,-0.39752 l -0.007,-0.009 -0.14706,-0.14476 0,-0.0115 c -0.60385,-0.67663 -1.21468,-1.34193 -1.85204,-1.97612 l -0.002,-0.002 c -0.68046,-0.68158 -1.38997,-1.33891 -2.11629,-1.98531 l 0,0.002 c -0.14055,-0.12466 -0.29759,-0.25866 -0.46186,-0.39982 l -0.005,-0.005 c -0.004,-0.004 -0.008,-0.006 -0.0115,-0.009 l -0.002,-0.002 c -0.6025,-0.52465 -1.21773,-1.03408 -1.84285,-1.52575 -0.12946,-0.10146 -0.2592,-0.20112 -0.38373,-0.29642 l -0.0253,-0.0207 c -1.57172,-1.20823 -3.1978,-2.31979 -4.88055,-3.31804 l -1.30287,-0.77206 278.57291,-278.572907 0.41591,-0.415904 z m 39.80039,39.876228 c 1.42161,0.578745 2.94345,0.896148 4.50832,0.896148 -1.56243,0 -3.07912,-0.343403 -4.50832,-0.896148 z M 278.29532,130.48043 c 12.176,0.23249 25.16317,4.00795 38.30452,11.26617 l 1.3672,0.75368 -148.74654,148.74884 -0.44578,0.0276 -0.002,0 c -11.9573,0.72297 -23.08308,5.70586 -31.62708,14.24873 -9.26656,9.2654 -14.35903,21.56055 -14.35903,34.66478 0,13.10413 5.09467,25.39699 14.35903,34.66249 9.26536,9.26537 21.55935,14.35674 34.66249,14.35674 13.10191,0 25.39716,-5.09141 34.66249,-14.35674 8.54638,-8.54638 13.52686,-19.67271 14.25332,-31.63397 l 0.0276,-0.44578 148.74885,-148.74195 0.75367,1.3695 0,0.002 c 16.57964,30.03912 14.89785,59.34555 -5.48946,79.73407 -11.17502,11.17501 -20.60974,19.67885 -28.86512,25.99514 -10.2715,7.85806 -17.13887,14.11596 -21.4179,21.06404 -4.27962,6.94903 -6.06162,14.64413 -6.06162,25.68265 0.004,36.76215 -14.81106,71.81753 -41.67542,98.67952 -26.87976,26.88332 -62.64054,41.69379 -100.65334,41.69379 -38.01164,0 -73.774735,-14.81044 -100.653347,-41.69379 -26.878598,-26.87741 -41.691495,-62.63943 -41.691495,-100.65105 0,-38.01402 14.812866,-73.77591 41.693794,-100.65565 26.85732,-26.86087 61.912748,-41.6754 98.679518,-41.6754 11.03671,0 18.73376,-1.78272 25.68265,-6.06163 6.94792,-4.27831 13.20601,-11.14471 21.06404,-21.4156 6.29991,-8.23553 14.80137,-17.6701 25.99514,-28.86741 10.19617,-10.19678 22.6334,-15.73899 36.26636,-16.63157 1.70393,-0.11124 3.42816,-0.15266 5.16778,-0.11948 z m 18.18028,4.06253 c 6.17367,1.80487 12.47445,4.4347 18.83288,7.88609 l 0.68933,0.37684 0.0299,-0.0299 c -6.59934,-3.64478 -13.14191,-6.37846 -19.55208,-8.23306 z m 72.74873,61.4274 -0.0299,0.0276 0,0.002 0.36305,0.66637 c -0.12664,-0.23336 -0.20429,-0.46274 -0.33317,-0.69624 z m 5.55151,11.84063 c 4.29005,10.84456 6.10362,21.39853 5.41364,31.2824 0.69992,-9.88439 -1.1196,-20.43641 -5.41364,-31.2824 z m 5.3585,31.63397 c -0.18356,2.38156 -0.49344,4.72882 -0.95819,7.02901 0.46507,-2.30014 0.777,-4.64713 0.95819,-7.02901 z m -287.247147,19.5314 c -3.512956,0 -7.030301,1.34091 -9.705957,4.01657 -45.704496,45.71044 -45.704665,120.1134 0.0092,165.82848 4.044957,4.03783 8.4043,7.80411 12.959658,11.19953 2.459091,1.82987 5.341715,2.72061 8.193995,2.72061 4.18676,0 8.32492,-1.91831 11.01341,-5.52394 4.52028,-6.06814 3.26274,-14.68575 -2.80333,-19.20511 -3.49957,-2.6067 -6.85529,-5.5077 -9.96101,-8.6076 -35.017345,-35.01968 -35.017436,-91.97794 0,-127.00235 5.35031,-5.34903 5.35128,-14.05833 0,-19.40962 -2.67463,-2.67592 -6.193011,-4.01657 -9.705957,-4.01657 z m 278.977317,5.29875 c -0.40357,0.73869 -0.82611,1.47066 -1.31894,2.17373 0.49311,-0.70293 0.91556,-1.43496 1.31894,-2.17373 z m -162.48746,42.6336 0.12409,0.14017 0,-0.0184 -0.12409,-0.12178 z m 2.14387,2.6149 0.0781,0.0758 -0.002,-0.005 -0.002,-0.002 -0.002,-0.002 c -0.0177,-0.0225 -0.0331,-0.0443 -0.0505,-0.0666 l -0.0207,0 z m -39.71539,4.39113 c 0.68161,0 1.33415,0.0456 1.96464,0.0942 l 0.0253,0 0.0207,0.002 c 0.43942,0.0332 0.87893,0.0795 1.31205,0.13556 l 0.007,0 c 0.35606,0.0423 0.70078,0.0952 1.03402,0.14936 0.0141,0.002 0.0297,0.005 0.0437,0.007 0.001,2.4e-4 0.003,-2.3e-4 0.005,0 l 0.0115,0.002 c 0.46616,0.0809 0.93953,0.16905 1.41545,0.27804 0.27864,0.0638 0.55556,0.1355 0.83411,0.21138 l 0.007,0 0.0758,0.0207 c 0.49015,0.13035 0.98896,0.26928 1.49358,0.43658 l 0.002,0 c 0.24559,0.0808 0.46242,0.16333 0.66865,0.23898 0.0184,0.007 0.0418,0.0136 0.0598,0.0207 l 0.0345,0.0138 0.002,0 0.005,0.002 c 0.49768,0.18218 1.00669,0.37424 1.52115,0.60203 l 0.002,0 c 0.0115,0.006 0.0181,0.009 0.0299,0.0138 0.25794,0.1129 0.4853,0.23033 0.67325,0.31939 0.47692,0.22665 0.97367,0.46226 1.4752,0.7399 0.28362,0.15725 0.51662,0.31067 0.70773,0.42279 0.004,0.002 0.0102,0.007 0.0138,0.009 l 0.0551,0.0253 0.0253,0.0253 c 0.40415,0.24278 0.82902,0.49476 1.26149,0.79045 l 0.002,0 c 0.2795,0.19119 0.51238,0.37439 0.73988,0.54688 l 0.005,0 0.15396,0.11719 0.002,0 c 0.3232,0.24098 0.6836,0.49585 1.0524,0.79964 l 0,0.002 c 0.51978,0.42978 1.00485,0.88375 1.4683,1.33044 0.0446,0.0432 0.19334,0.16345 0.36536,0.33548 0.2242,0.22318 0.39032,0.42609 0.5124,0.55606 l 0.15856,0.17005 0,0.007 c 0.32597,0.34477 0.66027,0.69494 0.98576,1.08686 l 0.13556,0.16545 0,0.0184 c 0.22557,0.2826 0.43182,0.55604 0.62731,0.82262 l 0.29871,0 0,0.39522 c 0.11069,0.14545 0.229,0.29911 0.36306,0.48944 l 0.0138,0.0115 0.0253,0.0414 0.007,0.007 c 0.33965,0.49935 0.63586,0.99639 0.92142,1.47979 0,0.001 0.002,0.004 0.002,0.005 0.0851,0.14308 0.21087,0.33486 0.34237,0.57445 l 0.007,0.009 0.002,0.009 0.005,0.007 0.17003,0.28723 -0.0253,0 c 0.2287,0.42974 0.45016,0.86063 0.64799,1.28217 l 0,0.002 0.0551,0.11719 c 0.066,0.137 0.13557,0.27942 0.21369,0.45726 0.184,0.41712 0.33592,0.827 0.48944,1.23622 l 0.0161,0 0.14017,0.38833 c 0.0102,0.0285 0.0216,0.0649 0.0322,0.0942 0.0196,0.0545 0.0414,0.11733 0.062,0.17462 l 0.0115,0 0.13327,0.40442 c 0.17556,0.53051 0.32242,1.05797 0.45956,1.5763 l 0.0207,0.0735 0,0.009 c 0.0653,0.24474 0.12983,0.49057 0.18842,0.74449 l 0.002,0.005 c 0.002,0.008 0.002,0.017 0.005,0.0253 l 0.009,0.0368 0,0.009 c 0.10742,0.47746 0.19609,0.95017 0.27574,1.42005 l 0,0.002 0.009,0.046 0,0.0161 c 0.0525,0.31546 0.10187,0.6307 0.14246,0.9467 0.0597,0.46222 0.10881,0.92664 0.14246,1.40167 l 0,0.002 c 0.0459,0.62858 0.0942,1.28314 0.0942,1.96922 0,7.01163 -2.74063,13.62292 -7.69537,18.58011 -4.95515,4.95639 -11.56746,7.69536 -18.57781,7.69536 -7.0105,0 -13.62284,-2.74056 -18.58011,-7.69536 -4.95609,-4.95611 -7.69767,-11.56836 -7.69767,-18.58011 0,-7.00944 2.74048,-13.62061 7.69767,-18.57781 4.95514,-4.95759 11.56746,-7.69536 18.57782,-7.69536 l -0.002,-0.002 z m 3.1572,1.39707 c 0.008,0.001 0.0159,0.001 0.023,0.002 l 0.19991,0.0253 -0.0299,-0.0276 -0.19302,0 z m 1.06848,0.15625 c 0.22667,0.0393 0.4503,0.0872 0.67556,0.13098 -0.20993,-0.041 -0.41879,-0.0873 -0.62961,-0.12409 l -0.007,-0.002 -0.0391,-0.005 z m 4.39342,1.16729 c 0.41288,0.15112 0.82042,0.31138 1.22473,0.48253 -0.37251,-0.15792 -0.74709,-0.30785 -1.12822,-0.44807 l -0.0368,-0.0138 -0.0597,-0.0207 z m 1.56251,0.625 0.005,0.005 c 0.18599,0.084 0.37011,0.17278 0.55837,0.26196 -0.19056,-0.0903 -0.37409,-0.18078 -0.56297,-0.26655 z m 2.61491,1.36031 0.0115,0.0115 0.0391,0.0184 -0.0506,-0.0299 z m 0.0506,0.0299 c 0.002,0.001 0.005,0.003 0.007,0.005 0,0 0,-0.002 0,-0.002 l -0.007,-0.002 z m 0.0161,0.009 c 0.11581,0.0697 0.22672,0.14622 0.34237,0.21599 l 0,-0.002 c -0.11302,-0.0682 -0.2223,-0.1434 -0.33548,-0.2114 l -0.007,-0.002 z m 3.13192,2.18982 0,0.002 c 0.48222,0.39872 0.94378,0.8293 1.39936,1.26839 -0.45533,-0.43884 -0.91689,-0.87176 -1.39936,-1.27068 z m 4.90122,5.45959 c 0.24725,0.37939 0.48715,0.76223 0.71693,1.15121 l -0.0735,-0.12179 c -0.20595,-0.34738 -0.4219,-0.68969 -0.6434,-1.02942 z m 1.00415,1.62455 c 0.006,0.01 0.0102,0.0193 0.0161,0.0299 0.004,0.006 0.006,0.0102 0.009,0.0161 0.001,0.001 0.001,0.003 0.002,0.005 0.001,0.002 0.003,0.005 0.005,0.007 l 0.005,0.009 c 0,0 0.002,0.002 0.002,0.002 l 0,0.002 c 0.001,0.002 0.003,0.005 0.005,0.007 l 0.0689,0.12638 0,-0.0919 -0.11259,-0.11259 z m 1.18338,2.43799 c 0.16288,0.38914 0.31732,0.78043 0.46186,1.17417 l 0,-0.005 c -0.14437,-0.39269 -0.29949,-0.78283 -0.46186,-1.16958 z m 0.75138,1.98071 c 0.15446,0.47408 0.28874,0.95314 0.41591,1.43383 l 0.0207,0.0735 c -0.006,-0.0245 -0.0113,-0.0491 -0.0184,-0.0735 l 0,-0.005 c -0.006,-0.0232 -0.0148,-0.0457 -0.0207,-0.0689 l 0,-0.002 c -0.12147,-0.45632 -0.25151,-0.90987 -0.39752,-1.35801 z m 0.43658,1.50736 0,0.009 c 0.0568,0.21295 0.1143,0.4263 0.16545,0.64339 -0.051,-0.2164 -0.10733,-0.43498 -0.16545,-0.65258 z m 0.61352,3.22153 c 0.0509,0.4067 0.095,0.8133 0.12408,1.22243 l 0,0.002 c 0.0459,0.62743 0.0919,1.25256 0.0919,1.8842 0,-0.63215 -0.0437,-1.25574 -0.0896,-1.8842 l 0,-0.002 c -0.0291,-0.41003 -0.0752,-0.81434 -0.12638,-1.22243 z m -58.20816,95.05128 c -0.44976,0.0173 -0.89538,0.0561 -1.33733,0.11719 -5.3002,0.73285 -9.90574,4.55188 -11.38336,10.02995 -1.96801,7.30549 2.37681,14.85417 9.68297,16.82457 2.11353,0.56908 4.21083,1.0712 6.23396,1.49818 l 0,0.002 c 0.95029,0.20007 1.9021,0.29872 2.8401,0.29872 6.35592,0 12.06252,-4.44418 13.42152,-10.89622 l -0.002,0 c 1.56197,-7.40648 -3.19432,-14.70675 -10.5998,-16.26621 -1.52437,-0.32111 -3.12288,-0.70283 -4.75187,-1.14201 -1.3712,-0.36942 -2.75391,-0.51845 -4.10389,-0.46646 z m 145.17804,31.33985 c -4.31548,4.3166 -8.85574,8.32291 -13.54331,12.09568 4.70145,-3.75313 9.22739,-7.77863 13.54331,-12.09568 z"
     id="path7217"
     inkscape:connector-curvature="0" /><g
     id="g15" /><g
     id="g17" /><g
     id="g19" /><g
     id="g21" /><g
     id="g23" /><g
     id="g25" /><g
     id="g27" /><g
     id="g29" /><g
     id="g31" /><g
     id="g33" /><g
     id="g35" /><g
     id="g37" /><g
     id="g39" /><g
     id="g41" /><g
     id="g43" /></svg>