<?xml version="1.0" encoding="UTF-8" standalone="no"?>
<!-- Generator: Adobe Illustrator 19.1.0, SVG Export Plug-In . SVG Version: 6.00 Build 0)  -->

<svg
   xmlns:dc="http://purl.org/dc/elements/1.1/"
   xmlns:cc="http://creativecommons.org/ns#"
   xmlns:rdf="http://www.w3.org/1999/02/22-rdf-syntax-ns#"
   xmlns:svg="http://www.w3.org/2000/svg"
   xmlns="http://www.w3.org/2000/svg"
   xmlns:sodipodi="http://sodipodi.sourceforge.net/DTD/sodipodi-0.dtd"
   xmlns:inkscape="http://www.inkscape.org/namespaces/inkscape"
   version="1.1"
   id="Capa_1"
   x="0px"
   y="0px"
   viewBox="0 0 66.593 66.593"
   style="enable-background:new 0 0 66.593 66.593;"
   xml:space="preserve"
   inkscape:version="0.91 r13725"
   sodipodi:docname="004-musical-note-1.svg"><metadata
     id="metadata43"><rdf:RDF><cc:Work
         rdf:about=""><dc:format>image/svg+xml</dc:format><dc:type
           rdf:resource="http://purl.org/dc/dcmitype/StillImage" /></cc:Work></rdf:RDF></metadata><defs
     id="defs41" /><sodipodi:namedview
     pagecolor="#ffffff"
     bordercolor="#666666"
     borderopacity="1"
     objecttolerance="10"
     gridtolerance="10"
     guidetolerance="10"
     inkscape:pageopacity="0"
     inkscape:pageshadow="2"
     inkscape:window-width="1440"
     inkscape:window-height="845"
     id="namedview39"
     showgrid="false"
     showguides="true"
     inkscape:guide-bbox="true"
     inkscape:snap-bbox="true"
     inkscape:snap-bbox-midpoints="true"
     inkscape:zoom="2.505927"
     inkscape:cx="91.775316"
     inkscape:cy="44.69127"
     inkscape:window-x="0"
     inkscape:window-y="27"
     inkscape:window-maximized="1"
     inkscape:current-layer="Capa_1"><sodipodi:guide
       position="50.226924,56.152572"
       orientation="-0.29813239,0.95452453"
       id="guide7081" /></sodipodi:namedview><path
     style="stroke:none"
     d="M 59.882812 0.00390625 C 59.610141 -0.0139375 59.329156 0.017359375 59.066406 0.099609375 L 24.128906 11.099609 C 23.426906 11.320609 22.721406 11.894453 22.566406 12.564453 C 22.432406 12.832453 22.132813 13.130172 22.132812 13.451172 L 22.132812 47.345703 C 21.132812 45.528703 18.778812 44.408203 15.882812 44.408203 C 9.7558125 44.408203 4.9140625 49.375953 4.9140625 55.501953 C 4.9140625 61.628953 9.9413594 66.59375 16.068359 66.59375 C 20.893359 66.59375 24.703469 63.377219 26.230469 59.074219 C 26.316469 57.855219 26.130859 58.083266 26.130859 57.322266 L 26.130859 25.396484 L 57.130859 15.783203 L 57.130859 36.345703 C 56.130859 34.528703 53.776859 33.408203 50.880859 33.408203 C 44.753859 33.408203 39.914062 38.375953 39.914062 44.501953 C 39.914062 50.628953 44.941359 55.59375 51.068359 55.59375 C 55.893359 55.59375 59.767922 52.506125 61.294922 48.203125 C 61.294922 47.514125 61.130859 47.212172 61.130859 46.451172 L 61.130859 13.763672 C 62.133859 13.346672 61.449219 1.8942031 61.449219 1.4082031 C 61.449219 0.54945312 60.700828 0.0574375 59.882812 0.00390625 z M 57.134766 4.7832031 L 57.134766 11.591797 L 26.134766 21.332031 L 26.134766 19.011719 L 40.154297 14.634766 A 1.0001 1.0001 0 0 0 39.822266 12.675781 A 1.0001 1.0001 0 0 0 39.556641 12.724609 L 26.134766 16.917969 L 26.134766 14.525391 L 57.134766 4.7832031 z M 48.462891 9.9785156 A 1.0001 1.0001 0 0 0 48.197266 10.027344 L 44.832031 11.078125 A 1.0001 1.0001 0 1 0 45.427734 12.986328 L 48.792969 11.935547 A 1.0001 1.0001 0 0 0 48.462891 9.9785156 z "
     id="path7" /><g
     id="g9" /><g
     id="g11" /><g
     id="g13" /><g
     id="g15" /><g
     id="g17" /><g
     id="g19" /><g
     id="g21" /><g
     id="g23" /><g
     id="g25" /><g
     id="g27" /><g
     id="g29" /><g
     id="g31" /><g
     id="g33" /><g
     id="g35" /><g
     id="g37" /></svg>