<?xml version="1.0" encoding="UTF-8" standalone="no"?>
<!-- Generator: Adobe Illustrator 18.0.0, SVG Export Plug-In . SVG Version: 6.00 Build 0)  -->

<svg
   xmlns:dc="http://purl.org/dc/elements/1.1/"
   xmlns:cc="http://creativecommons.org/ns#"
   xmlns:rdf="http://www.w3.org/1999/02/22-rdf-syntax-ns#"
   xmlns:svg="http://www.w3.org/2000/svg"
   xmlns="http://www.w3.org/2000/svg"
   xmlns:sodipodi="http://sodipodi.sourceforge.net/DTD/sodipodi-0.dtd"
   xmlns:inkscape="http://www.inkscape.org/namespaces/inkscape"
   version="1.1"
   id="Capa_1"
   x="0px"
   y="0px"
   viewBox="0 0 314 314"
   style="enable-background:new 0 0 314 314;"
   xml:space="preserve"
   inkscape:version="0.91 r13725"
   sodipodi:docname="trumpet.svg"><metadata
     id="metadata39"><rdf:RDF><cc:Work
         rdf:about=""><dc:format>image/svg+xml</dc:format><dc:type
           rdf:resource="http://purl.org/dc/dcmitype/StillImage" /></cc:Work></rdf:RDF></metadata><defs
     id="defs37" /><sodipodi:namedview
     pagecolor="#ffffff"
     bordercolor="#666666"
     borderopacity="1"
     objecttolerance="10"
     gridtolerance="10"
     guidetolerance="10"
     inkscape:pageopacity="0"
     inkscape:pageshadow="2"
     inkscape:window-width="1440"
     inkscape:window-height="845"
     id="namedview35"
     showgrid="false"
     inkscape:zoom="1.0629121"
     inkscape:cx="405.93434"
     inkscape:cy="158.40458"
     inkscape:window-x="0"
     inkscape:window-y="27"
     inkscape:window-maximized="1"
     inkscape:current-layer="Capa_1" /><path
     d="M 301.24609 52.78125 C 295.43109 52.78125 289.9805 57.021125 287.6875 63.328125 C 286.3345 66.868125 272.80758 85.679281 251.26758 103.48828 C 232.62958 118.89628 203.48036 137.26562 170.44336 137.26562 L 163.1582 137.26562 L 163.1582 121.30664 L 165.17578 121.30664 C 169.04178 121.30664 172.17578 118.17264 172.17578 114.30664 C 172.17578 110.44064 169.04178 107.30664 165.17578 107.30664 L 147.14258 107.30664 C 143.27658 107.30664 140.14258 110.44064 140.14258 114.30664 C 140.14258 118.17264 143.27658 121.30664 147.14258 121.30664 L 149.16016 121.30664 L 149.16016 137.26562 L 123.18359 137.26562 L 123.18359 121.30664 L 125.20117 121.30664 C 129.06717 121.30664 132.20117 118.17264 132.20117 114.30664 C 132.20117 110.44064 129.06717 107.30664 125.20117 107.30664 L 107.16797 107.30664 C 103.30197 107.30664 100.16797 110.44064 100.16797 114.30664 C 100.16797 118.17264 103.30197 121.30664 107.16797 121.30664 L 109.18555 121.30664 L 109.18359 137.26562 L 83.207031 137.26562 L 83.207031 121.30664 L 85.226562 121.30664 C 89.092562 121.30664 92.226562 118.17264 92.226562 114.30664 C 92.226562 110.44064 89.092562 107.30664 85.226562 107.30664 L 67.191406 107.30664 C 63.325406 107.30664 60.191406 110.44064 60.191406 114.30664 C 60.191406 118.17264 63.325406 121.30664 67.191406 121.30664 L 69.207031 121.30664 L 69.207031 137.26562 L 35.839844 137.26562 L 10.625 122.00195 C 8.463 120.69295 5.7645 120.64962 3.5625 121.89062 C 1.3605 123.13163 5.9211895e-16 125.46323 0 127.99023 L 0 186.00977 C 0 188.53577 1.3605 190.86642 3.5625 192.10742 C 4.6295 192.71042 5.815 193.00977 7 193.00977 C 8.257 193.00977 9.512 192.67205 10.625 191.99805 L 35.839844 176.73438 L 43.216797 176.73438 L 43.214844 201.39648 C 43.215844 224.97748 62.399469 244.16306 85.980469 244.16406 L 146.38477 244.16406 L 146.38672 244.16406 C 157.79272 244.16406 168.52828 239.71195 176.61328 231.62695 C 184.69828 223.54195 189.14939 212.80744 189.15039 201.39844 L 189.15039 178.6543 C 214.37539 183.7463 236.24253 198.08967 251.26953 210.51367 C 272.80953 228.32367 286.33455 247.13397 287.68555 250.66797 C 289.98055 256.97797 295.43009 261.2197 301.24609 261.2207 C 307.59409 261.2207 313.99995 256.12333 314.00195 244.73633 C 313.99895 232.27733 313.31697 159.59905 313.29297 156.99805 C 313.31697 154.39705 314.00005 81.722672 313.99805 69.263672 C 313.99805 57.877672 307.59409 52.78125 301.24609 52.78125 z M 299.99609 70.03125 C 299.97309 84.57225 299.29997 156.19664 299.29297 156.93164 L 299.29297 157.06445 C 299.29997 157.80045 299.97205 229.44566 299.99805 243.97266 C 295.70805 235.44766 280.59006 216.6352 260.41406 199.9082 C 239.96006 182.9502 207.74736 162.73633 170.44336 162.73633 L 40.884766 162.73438 L 40.884766 151.26562 L 170.44336 151.26562 C 207.74736 151.26562 239.96006 131.0498 260.41406 114.0918 C 280.58706 97.365797 295.70409 78.56025 299.99609 70.03125 z M 279.12305 111.46094 A 3.750375 3.750375 0 0 0 275.75977 113.28125 C 263.55039 133.0383 240.30483 145.66882 221.66602 149.93555 A 3.750375 3.750375 0 1 0 223.33789 157.24609 C 243.74274 152.5751 268.47773 139.33372 282.14062 117.22461 A 3.750375 3.750375 0 0 0 279.12305 111.46094 z M 14 140.41016 L 26.886719 148.21094 L 26.886719 165.78906 L 14 173.58984 L 14 140.41016 z M 57.214844 176.73438 L 69.019531 176.73438 L 69.017578 201.39844 C 69.019578 210.75244 76.628469 218.36133 85.980469 218.36133 L 146.38477 218.36133 C 155.73677 218.35933 163.3457 210.74948 163.3457 201.39648 L 163.3457 176.73633 L 170.44336 176.73633 C 172.02236 176.73633 173.58939 176.79105 175.15039 176.87305 L 175.15039 201.39648 C 175.15039 209.06548 172.15389 216.28556 166.71289 221.72656 C 161.27289 227.16656 154.05277 230.16406 146.38477 230.16406 L 85.980469 230.16406 C 70.119469 230.16306 57.213891 217.25848 57.212891 201.39648 L 57.214844 176.73438 z M 83.019531 176.73438 L 149.3457 176.73633 L 149.3457 201.39648 C 149.3457 203.03048 148.01581 204.36133 146.38281 204.36133 L 85.980469 204.36133 C 84.346469 204.36133 83.017578 203.03048 83.017578 201.39648 L 83.019531 176.73438 z "
     id="path3" /><g
     id="g5" /><g
     id="g7" /><g
     id="g9" /><g
     id="g11" /><g
     id="g13" /><g
     id="g15" /><g
     id="g17" /><g
     id="g19" /><g
     id="g21" /><g
     id="g23" /><g
     id="g25" /><g
     id="g27" /><g
     id="g29" /><g
     id="g31" /><g
     id="g33" /></svg>